<svg xmlns="http://www.w3.org/2000/svg" xmlns:xlink="http://www.w3.org/1999/xlink" width="950" zoomAndPan="magnify" viewBox="0 0 712.5 242.999999" height="324" preserveAspectRatio="xMidYMid meet" version="1.0"><defs><g/><clipPath id="59af1b3aac"><path d="M 98 0.0859375 L 607 0.0859375 L 607 242.914062 L 98 242.914062 Z M 98 0.0859375 " clip-rule="nonzero"/></clipPath><clipPath id="1b3f860026"><path d="M 97 9 L 428 9 L 428 173 L 97 173 Z M 97 9 " clip-rule="nonzero"/></clipPath><clipPath id="0e11e1b098"><path d="M 95.074219 11.890625 L 425.074219 1.03125 L 430.609375 169.207031 L 100.605469 180.0625 Z M 95.074219 11.890625 " clip-rule="nonzero"/></clipPath><clipPath id="635e496a0d"><path d="M 95.074219 11.890625 L 425.074219 1.03125 L 430.609375 169.207031 L 100.605469 180.0625 Z M 95.074219 11.890625 " clip-rule="nonzero"/></clipPath><clipPath id="feb4baaf8d"><path d="M 0.0898438 48 L 480 48 L 480 204 L 0.0898438 204 Z M 0.0898438 48 " clip-rule="nonzero"/></clipPath><clipPath id="9b71c77581"><rect x="0" width="480" y="0" height="156"/></clipPath><clipPath id="31e9c65e3c"><rect x="0" width="509" y="0" height="243"/></clipPath></defs><g clip-path="url(#59af1b3aac)"><g transform="matrix(1, 0, 0, 1, 98, 0.0000000000000272)"><g clip-path="url(#31e9c65e3c)"><g clip-path="url(#1b3f860026)"><g clip-path="url(#0e11e1b098)"><g clip-path="url(#635e496a0d)"><path fill="#e1bc35" d="M 413.035156 34.085938 C 417.488281 40.832031 421.050781 48.222656 423.554688 56.089844 C 425.996094 63.753906 427.433594 71.875 427.710938 80.304688 C 428.523438 104.96875 419.265625 127.621094 403.636719 144.3125 C 388.007812 161.003906 366.003906 171.738281 341.324219 172.566406 C 322.957031 173.179688 305.695312 168.21875 291.183594 159.195312 C 276.421875 150.019531 264.5 136.640625 257.148438 120.660156 L 256.878906 120.066406 L 256.882812 120.066406 C 256.441406 119.066406 255.933594 117.898438 255.050781 115.722656 C 254.015625 113.167969 252.425781 109.140625 249.738281 102.183594 L 249.425781 101.371094 C 244.050781 87.4375 234.558594 62.835938 221.277344 45.585938 C 215.125 37.59375 208.148438 31.167969 201.085938 26.148438 C 192.667969 20.15625 184.128906 16.167969 176.738281 13.902344 C 167.753906 11.144531 160.449219 10.941406 153.707031 11.589844 L 153.714844 11.820312 C 152.164062 11.871094 150.628906 11.984375 149.113281 12.15625 C 147.339844 12.417969 145.585938 12.710938 143.832031 13.007812 C 132.113281 15.457031 121.757812 21.484375 113.910156 29.863281 C 103.925781 40.53125 98.007812 55.007812 98.523438 70.769531 C 99.042969 86.527344 105.902344 100.585938 116.566406 110.570312 C 126.539062 119.90625 139.839844 125.6875 154.402344 125.976562 C 152.714844 124.6875 151.601562 122.675781 151.523438 120.386719 C 151.390625 116.339844 154.566406 112.949219 158.617188 112.8125 C 162.667969 112.679688 166.058594 115.855469 166.191406 119.90625 C 166.324219 123.957031 163.148438 127.347656 159.097656 127.480469 C 158.558594 127.496094 158.027344 127.457031 157.515625 127.363281 L 157.519531 127.445312 C 141.351562 127.980469 126.496094 121.90625 115.550781 111.660156 C 104.605469 101.410156 97.566406 86.988281 97.035156 70.816406 C 96.503906 54.648438 102.578125 39.792969 112.824219 28.847656 C 120.855469 20.269531 131.453125 14.09375 143.445312 11.566406 L 143.449219 11.566406 C 145.28125 11.179688 147.148438 10.878906 149.042969 10.667969 C 157.21875 9.476562 165.882812 9.015625 177.171875 12.480469 C 184.699219 14.789062 193.382812 18.847656 201.949219 24.9375 C 209.117188 30.035156 216.199219 36.558594 222.453125 44.679688 C 235.867188 62.105469 245.40625 86.832031 250.808594 100.835938 L 251.125 101.648438 C 253.765625 108.496094 255.359375 112.53125 256.429688 115.167969 C 257.476562 117.742188 257.992188 118.902344 258.507812 120.058594 C 265.738281 135.765625 277.453125 148.914062 291.96875 157.9375 C 306.238281 166.808594 323.210938 171.6875 341.273438 171.082031 C 365.539062 170.269531 387.175781 159.710938 402.546875 143.296875 C 417.914062 126.882812 427.019531 104.609375 426.222656 80.355469 C 425.949219 72.058594 424.535156 64.070312 422.136719 56.539062 C 419.671875 48.792969 416.167969 41.527344 411.796875 34.902344 C 407.132812 27.828125 400.703125 22.050781 393.15625 18.15625 C 385.859375 14.390625 377.515625 12.382812 368.726562 12.671875 C 355.054688 13.125 342.863281 19.070312 334.199219 28.324219 C 325.535156 37.578125 320.402344 50.132812 320.851562 63.804688 C 321.304688 77.472656 327.25 89.667969 336.503906 98.328125 C 345.105469 106.382812 356.5625 111.382812 369.109375 111.6875 C 368.710938 111.128906 368.464844 110.449219 368.441406 109.710938 C 368.375 107.726562 369.933594 106.0625 371.921875 105.996094 C 373.90625 105.929688 375.570312 107.488281 375.636719 109.476562 C 375.703125 111.464844 374.144531 113.125 372.15625 113.191406 C 371.992188 113.195312 371.828125 113.191406 371.667969 113.175781 C 357.726562 113.535156 344.933594 108.265625 335.484375 99.417969 C 325.953125 90.492188 319.828125 77.933594 319.363281 63.851562 C 318.898438 49.773438 324.1875 36.835938 333.113281 27.304688 C 342.035156 17.773438 354.597656 11.648438 368.675781 11.183594 C 377.722656 10.886719 386.3125 12.953125 393.832031 16.835938 C 401.609375 20.847656 408.234375 26.800781 413.035156 34.085938 Z M 413.035156 34.085938 " fill-opacity="1" fill-rule="nonzero"/></g></g></g><g clip-path="url(#feb4baaf8d)"><g transform="matrix(1, 0, 0, 1, 0, 48)"><g clip-path="url(#9b71c77581)"><g fill="#ffc600" fill-opacity="1"><g transform="translate(0.299295, 115.68238)"><g><path d="M 71.125 -22.984375 L 67.390625 0 L 5.4375 0 L 5.4375 -109.625 L 17.859375 -109.625 L 17.859375 -1.25 L 44.09375 -1.25 C 50.820312 -1.25 56.28125 -2.90625 60.46875 -6.21875 C 64.664062 -9.53125 68.21875 -15.117188 71.125 -22.984375 Z M 71.125 -22.984375 "/></g></g></g><g fill="#ffc600" fill-opacity="1"><g transform="translate(76.848619, 115.68238)"><g><path d="M 5.4375 0 L 5.4375 -109.625 L 17.078125 -109.625 L 17.078125 0 Z M 5.4375 0 "/></g></g></g><g fill="#ffc600" fill-opacity="1"><g transform="translate(99.363125, 115.68238)"><g><path d="M 51.390625 -60.40625 C 57.921875 -59.988281 63.695312 -58.820312 68.71875 -56.90625 C 73.738281 -54.988281 77.671875 -51.929688 80.515625 -47.734375 C 83.359375 -43.546875 84.78125 -37.78125 84.78125 -30.4375 C 84.78125 -22.15625 82.890625 -15.8125 79.109375 -11.40625 C 75.335938 -7.007812 70.238281 -4.035156 63.8125 -2.484375 C 57.394531 -0.929688 50.203125 -0.101562 42.234375 0 L 5.4375 0 L 5.4375 -109.625 L 32.296875 -109.625 C 40.054688 -109.625 47.117188 -108.796875 53.484375 -107.140625 C 59.859375 -105.484375 64.90625 -102.84375 68.625 -99.21875 C 72.351562 -95.601562 74.21875 -90.789062 74.21875 -84.78125 C 74.21875 -77.84375 71.992188 -72.378906 67.546875 -68.390625 C 63.097656 -64.410156 57.710938 -61.75 51.390625 -60.40625 Z M 72.671875 -30.4375 C 72.671875 -37.375 71.738281 -42.804688 69.875 -46.734375 C 68.007812 -50.671875 65.550781 -53.570312 62.5 -55.4375 C 59.445312 -57.300781 56.160156 -58.460938 52.640625 -58.921875 C 49.117188 -59.390625 45.648438 -59.625 42.234375 -59.625 C 38.609375 -59.625 35.164062 -60.632812 31.90625 -62.65625 C 28.644531 -64.675781 25.878906 -67.445312 23.609375 -70.96875 C 22.253906 -73.03125 21.085938 -75.378906 20.109375 -78.015625 C 19.128906 -80.660156 18.328125 -83.484375 17.703125 -86.484375 L 17.703125 -1.25 L 41 -1.25 C 44.519531 -1.25 48.113281 -1.476562 51.78125 -1.9375 C 55.457031 -2.40625 58.875 -3.546875 62.03125 -5.359375 C 65.1875 -7.171875 67.75 -10.066406 69.71875 -14.046875 C 71.6875 -18.035156 72.671875 -23.5 72.671875 -30.4375 Z M 62.109375 -84.78125 C 62.109375 -90.6875 60.660156 -95.367188 57.765625 -98.828125 C 54.867188 -102.296875 51.140625 -104.78125 46.578125 -106.28125 C 42.023438 -107.789062 37.265625 -108.546875 32.296875 -108.546875 L 17.703125 -108.546875 L 17.703125 -98.296875 C 17.703125 -92.910156 18.320312 -87.960938 19.5625 -83.453125 C 20.800781 -78.953125 22.5625 -75.046875 24.84375 -71.734375 C 29.394531 -64.492188 35.191406 -60.875 42.234375 -60.875 C 45.753906 -60.875 49.015625 -61.703125 52.015625 -63.359375 C 55.015625 -65.015625 57.445312 -67.597656 59.3125 -71.109375 C 61.175781 -74.628906 62.109375 -79.1875 62.109375 -84.78125 Z M 62.109375 -84.78125 "/></g></g></g><g fill="#ffc600" fill-opacity="1"><g transform="translate(189.576428, 115.68238)"><g><path d="M 80.90625 0 L 63.359375 -42.078125 C 56.734375 -41.460938 51.269531 -40.117188 46.96875 -38.046875 C 42.675781 -35.972656 39.207031 -33.460938 36.5625 -30.515625 C 33.925781 -27.566406 31.804688 -24.484375 30.203125 -21.265625 C 28.597656 -18.054688 27.175781 -15.054688 25.9375 -12.265625 C 24.488281 -8.429688 22.910156 -5.242188 21.203125 -2.703125 C 19.492188 -0.171875 16.878906 1.039062 13.359375 0.9375 C 12.941406 0.832031 12.550781 0.726562 12.1875 0.625 C 11.820312 0.519531 11.382812 0.257812 10.875 -0.15625 C 6.625 -2.019531 4.914062 -6.523438 5.75 -13.671875 C 6.15625 -17.078125 6.898438 -20.925781 7.984375 -25.21875 C 9.078125 -29.519531 10.554688 -34.15625 12.421875 -39.125 C 15.210938 -46.582031 18.5 -54.476562 22.28125 -62.8125 C 26.0625 -71.144531 30.046875 -79.375 34.234375 -87.5 C 38.429688 -95.625 42.492188 -103 46.421875 -109.625 L 47.515625 -109.625 L 93.9375 0 Z M 62.890625 -43.171875 L 40.0625 -96.28125 C 35.300781 -87.164062 30.515625 -77.5625 25.703125 -67.46875 C 20.890625 -57.375 16.828125 -47.828125 13.515625 -38.828125 C 11.648438 -33.847656 10.171875 -29.238281 9.078125 -25 C 7.992188 -20.757812 7.242188 -16.984375 6.828125 -13.671875 C 6.722656 -10.453125 6.984375 -7.726562 7.609375 -5.5 C 8.234375 -3.28125 9.472656 -1.863281 11.328125 -1.25 C 11.847656 -1.144531 12.238281 -1.039062 12.5 -0.9375 C 12.757812 -0.832031 13.097656 -0.675781 13.515625 -0.46875 C 16.617188 -0.257812 18.945312 -1.34375 20.5 -3.71875 C 22.050781 -6.101562 23.445312 -9.054688 24.6875 -12.578125 C 25.925781 -15.472656 27.375 -18.550781 29.03125 -21.8125 C 30.6875 -25.070312 32.882812 -28.203125 35.625 -31.203125 C 38.375 -34.210938 41.921875 -36.800781 46.265625 -38.96875 C 50.617188 -41.144531 56.160156 -42.546875 62.890625 -43.171875 Z M 62.890625 -43.171875 "/></g></g></g><g fill="#ffc600" fill-opacity="1"><g transform="translate(288.950823, 115.68238)"><g><path d="M 80.90625 0 L 63.359375 -42.078125 C 56.734375 -41.460938 51.269531 -40.117188 46.96875 -38.046875 C 42.675781 -35.972656 39.207031 -33.460938 36.5625 -30.515625 C 33.925781 -27.566406 31.804688 -24.484375 30.203125 -21.265625 C 28.597656 -18.054688 27.175781 -15.054688 25.9375 -12.265625 C 24.488281 -8.429688 22.910156 -5.242188 21.203125 -2.703125 C 19.492188 -0.171875 16.878906 1.039062 13.359375 0.9375 C 12.941406 0.832031 12.550781 0.726562 12.1875 0.625 C 11.820312 0.519531 11.382812 0.257812 10.875 -0.15625 C 6.625 -2.019531 4.914062 -6.523438 5.75 -13.671875 C 6.15625 -17.078125 6.898438 -20.925781 7.984375 -25.21875 C 9.078125 -29.519531 10.554688 -34.15625 12.421875 -39.125 C 15.210938 -46.582031 18.5 -54.476562 22.28125 -62.8125 C 26.0625 -71.144531 30.046875 -79.375 34.234375 -87.5 C 38.429688 -95.625 42.492188 -103 46.421875 -109.625 L 47.515625 -109.625 L 93.9375 0 Z M 62.890625 -43.171875 L 40.0625 -96.28125 C 35.300781 -87.164062 30.515625 -77.5625 25.703125 -67.46875 C 20.890625 -57.375 16.828125 -47.828125 13.515625 -38.828125 C 11.648438 -33.847656 10.171875 -29.238281 9.078125 -25 C 7.992188 -20.757812 7.242188 -16.984375 6.828125 -13.671875 C 6.722656 -10.453125 6.984375 -7.726562 7.609375 -5.5 C 8.234375 -3.28125 9.472656 -1.863281 11.328125 -1.25 C 11.847656 -1.144531 12.238281 -1.039062 12.5 -0.9375 C 12.757812 -0.832031 13.097656 -0.675781 13.515625 -0.46875 C 16.617188 -0.257812 18.945312 -1.34375 20.5 -3.71875 C 22.050781 -6.101562 23.445312 -9.054688 24.6875 -12.578125 C 25.925781 -15.472656 27.375 -18.550781 29.03125 -21.8125 C 30.6875 -25.070312 32.882812 -28.203125 35.625 -31.203125 C 38.375 -34.210938 41.921875 -36.800781 46.265625 -38.96875 C 50.617188 -41.144531 56.160156 -42.546875 62.890625 -43.171875 Z M 62.890625 -43.171875 "/></g></g></g><g fill="#ffc600" fill-opacity="1"><g transform="translate(388.325175, 115.68238)"><g><path d="M 13.359375 -83.234375 C 13.359375 -89.023438 14.753906 -93.835938 17.546875 -97.671875 C 20.335938 -101.503906 23.984375 -104.476562 28.484375 -106.59375 C 32.992188 -108.71875 37.9375 -110.015625 43.3125 -110.484375 C 48.695312 -110.953125 54.03125 -110.664062 59.3125 -109.625 C 64.59375 -108.59375 69.378906 -106.882812 73.671875 -104.5 C 77.972656 -102.125 81.210938 -99.125 83.390625 -95.5 L 83.390625 -79.1875 C 79.453125 -87.164062 74.894531 -93.378906 69.71875 -97.828125 C 64.539062 -102.273438 59.207031 -105.300781 53.71875 -106.90625 C 48.238281 -108.507812 43.015625 -108.945312 38.046875 -108.21875 C 33.078125 -107.5 28.78125 -105.898438 25.15625 -103.421875 C 22.15625 -101.453125 20.109375 -98.960938 19.015625 -95.953125 C 17.929688 -92.953125 18.242188 -89.5625 19.953125 -85.78125 C 21.660156 -82.007812 25.101562 -78 30.28125 -73.75 C 35.457031 -69.507812 42.753906 -65.164062 52.171875 -60.71875 C 57.867188 -58.332031 63.226562 -55.640625 68.25 -52.640625 C 73.269531 -49.640625 77.359375 -46.015625 80.515625 -41.765625 C 83.671875 -37.523438 85.25 -32.351562 85.25 -26.25 C 85.25 -22.101562 84.445312 -18.398438 82.84375 -15.140625 C 81.238281 -11.878906 79.039062 -9.109375 76.25 -6.828125 C 71.789062 -3.410156 66.457031 -1.234375 60.25 -0.296875 C 54.039062 0.628906 47.546875 0.421875 40.765625 -0.921875 C 33.984375 -2.273438 27.484375 -4.738281 21.265625 -8.3125 C 15.054688 -11.882812 9.78125 -16.460938 5.4375 -22.046875 L 5.4375 -43.640625 C 9.269531 -34.003906 14.082031 -25.976562 19.875 -19.5625 C 25.675781 -13.144531 31.914062 -8.382812 38.59375 -5.28125 C 45.269531 -2.175781 51.789062 -0.828125 58.15625 -1.234375 C 64.519531 -1.648438 70.132812 -3.929688 75 -8.078125 C 77.59375 -10.242188 79.222656 -12.800781 79.890625 -15.75 C 80.566406 -18.707031 79.945312 -22 78.03125 -25.625 C 76.113281 -29.25 72.59375 -33.050781 67.46875 -37.03125 C 62.34375 -41.019531 55.28125 -45.082031 46.28125 -49.21875 C 40.6875 -51.707031 35.378906 -54.453125 30.359375 -57.453125 C 25.335938 -60.453125 21.25 -64.019531 18.09375 -68.15625 C 14.9375 -72.300781 13.359375 -77.328125 13.359375 -83.234375 Z M 13.359375 -83.234375 "/></g></g></g></g></g></g><g fill="#ffc600" fill-opacity="1"><g transform="translate(316.546174, 231.212461)"><g><path d="M 0.375 -33.34375 L 0.375 -28.734375 C 0.375 -28.734375 0.4375 -28.9375 0.5625 -29.34375 C 0.6875 -29.75 0.976562 -30.226562 1.4375 -30.78125 C 1.90625 -31.34375 2.644531 -31.835938 3.65625 -32.265625 C 4.675781 -32.703125 6.066406 -32.929688 7.828125 -32.953125 L 15.390625 -32.953125 C 15.640625 -32.535156 15.597656 -31.9375 15.265625 -31.15625 L 2.515625 -2.171875 C 2.203125 -1.535156 1.800781 -1.015625 1.3125 -0.609375 C 0.820312 -0.203125 0.382812 0 0 0 L 21.453125 0 L 21.453125 -4.640625 C 21.453125 -4.640625 21.390625 -4.429688 21.265625 -4.015625 C 21.140625 -3.597656 20.835938 -3.113281 20.359375 -2.5625 C 19.890625 -2.019531 19.144531 -1.53125 18.125 -1.09375 C 17.113281 -0.664062 15.726562 -0.441406 13.96875 -0.421875 L 6.6875 -0.421875 C 6.4375 -0.867188 6.507812 -1.507812 6.90625 -2.34375 L 19.53125 -30.953125 C 19.84375 -31.679688 20.25 -32.257812 20.75 -32.6875 C 21.25 -33.125 21.707031 -33.34375 22.125 -33.34375 Z M 0.375 -33.34375 "/></g></g></g><g fill="#ffc600" fill-opacity="1"><g transform="translate(358.95455, 231.212461)"><g><path d="M 10.375 -33.34375 C 10.425781 -33.34375 10.488281 -33.332031 10.5625 -33.3125 C 10.632812 -33.300781 10.710938 -33.28125 10.796875 -33.25 C 11.097656 -33.144531 11.289062 -32.890625 11.375 -32.484375 C 11.457031 -32.078125 11.414062 -31.582031 11.25 -31 L 2.296875 -2.390625 C 2.078125 -1.691406 1.742188 -1.117188 1.296875 -0.671875 C 0.847656 -0.222656 0.414062 0 0 0 L 4.09375 0 C 3.675781 0 3.382812 -0.203125 3.21875 -0.609375 C 3.050781 -1.015625 3.050781 -1.535156 3.21875 -2.171875 L 7.53125 -15.8125 C 7.644531 -16.257812 7.976562 -16.484375 8.53125 -16.484375 L 16.359375 -16.484375 C 16.660156 -16.484375 16.894531 -16.421875 17.0625 -16.296875 C 17.226562 -16.171875 17.34375 -16.007812 17.40625 -15.8125 L 21.671875 -2.171875 C 21.859375 -1.535156 21.863281 -1.015625 21.6875 -0.609375 C 21.507812 -0.203125 21.207031 0 20.78125 0 L 28.234375 0 C 27.816406 0 27.382812 -0.222656 26.9375 -0.671875 C 26.488281 -1.117188 26.15625 -1.691406 25.9375 -2.390625 L 16.984375 -31 C 16.785156 -31.695312 16.765625 -32.257812 16.921875 -32.6875 C 17.078125 -33.125 17.375 -33.34375 17.8125 -33.34375 Z M 16.859375 -17.484375 C 16.910156 -17.347656 16.921875 -17.21875 16.890625 -17.09375 C 16.867188 -16.96875 16.71875 -16.890625 16.4375 -16.859375 L 8.453125 -16.859375 C 8.203125 -16.890625 8.0625 -16.96875 8.03125 -17.09375 C 8 -17.21875 8 -17.347656 8.03125 -17.484375 L 12.296875 -31.15625 C 12.347656 -31.320312 12.40625 -31.445312 12.46875 -31.53125 C 12.488281 -31.476562 12.503906 -31.414062 12.515625 -31.34375 C 12.535156 -31.28125 12.5625 -31.21875 12.59375 -31.15625 Z M 16.859375 -17.484375 "/></g></g></g><g fill="#ffc600" fill-opacity="1"><g transform="translate(408.095698, 231.212461)"><g><path d="M 1.546875 -10.078125 C 1.546875 -7.960938 2.066406 -6.148438 3.109375 -4.640625 C 4.160156 -3.140625 5.5625 -1.988281 7.3125 -1.1875 C 9.070312 -0.394531 11.015625 0 13.140625 0 C 15.203125 0 17.082031 -0.367188 18.78125 -1.109375 C 20.476562 -1.847656 21.859375 -2.921875 22.921875 -4.328125 C 23.984375 -5.734375 24.566406 -7.441406 24.671875 -9.453125 C 24.671875 -9.484375 24.671875 -9.894531 24.671875 -10.6875 C 24.671875 -11.476562 24.671875 -12.515625 24.671875 -13.796875 C 24.671875 -15.085938 24.671875 -16.488281 24.671875 -18 C 24.671875 -19.519531 24.671875 -21.039062 24.671875 -22.5625 C 24.671875 -24.082031 24.671875 -25.476562 24.671875 -26.75 C 24.671875 -28.019531 24.671875 -29.035156 24.671875 -29.796875 C 24.671875 -30.566406 24.671875 -30.953125 24.671875 -30.953125 C 24.671875 -31.679688 24.820312 -32.257812 25.125 -32.6875 C 25.4375 -33.125 25.816406 -33.34375 26.265625 -33.34375 L 18.828125 -33.34375 C 19.210938 -33.34375 19.554688 -33.140625 19.859375 -32.734375 C 20.171875 -32.328125 20.34375 -31.800781 20.375 -31.15625 L 20.375 -6.1875 C 20.375 -4.851562 20.046875 -3.753906 19.390625 -2.890625 C 18.734375 -2.023438 17.859375 -1.390625 16.765625 -0.984375 C 15.679688 -0.578125 14.472656 -0.375 13.140625 -0.375 C 11.796875 -0.375 10.578125 -0.578125 9.484375 -0.984375 C 8.398438 -1.390625 7.53125 -2.023438 6.875 -2.890625 C 6.21875 -3.753906 5.890625 -4.851562 5.890625 -6.1875 L 5.890625 -31 C 5.890625 -31.695312 6.039062 -32.257812 6.34375 -32.6875 C 6.65625 -33.125 7.023438 -33.34375 7.453125 -33.34375 L 0 -33.34375 C 0.414062 -33.34375 0.769531 -33.140625 1.0625 -32.734375 C 1.351562 -32.328125 1.515625 -31.800781 1.546875 -31.15625 C 1.546875 -31.15625 1.546875 -30.78125 1.546875 -30.03125 C 1.546875 -29.28125 1.546875 -28.285156 1.546875 -27.046875 C 1.546875 -25.804688 1.546875 -24.4375 1.546875 -22.9375 C 1.546875 -21.445312 1.546875 -19.957031 1.546875 -18.46875 C 1.546875 -16.976562 1.546875 -15.601562 1.546875 -14.34375 C 1.546875 -13.09375 1.546875 -12.078125 1.546875 -11.296875 C 1.546875 -10.515625 1.546875 -10.109375 1.546875 -10.078125 Z M 1.546875 -10.078125 "/></g></g></g><g fill="#ffc600" fill-opacity="1"><g transform="translate(455.271375, 231.212461)"><g><path d="M 15.859375 0 C 16.859375 0 17.832031 -0.09375 18.78125 -0.28125 C 19.726562 -0.476562 20.632812 -0.757812 21.5 -1.125 C 21.71875 -1.019531 21.910156 -0.9375 22.078125 -0.875 C 23.453125 -0.175781 24.613281 0.195312 25.5625 0.25 C 26.507812 0.300781 27.265625 0.203125 27.828125 -0.046875 C 28.398438 -0.296875 28.8125 -0.566406 29.0625 -0.859375 C 29.320312 -1.148438 29.453125 -1.296875 29.453125 -1.296875 C 28.941406 -0.679688 28.210938 -0.5625 27.265625 -0.9375 C 26.316406 -1.3125 25.234375 -1.804688 24.015625 -2.421875 C 26.296875 -3.898438 28.125 -5.894531 29.5 -8.40625 C 30.882812 -10.914062 31.578125 -13.675781 31.578125 -16.6875 C 31.578125 -19 31.164062 -21.160156 30.34375 -23.171875 C 29.519531 -25.179688 28.382812 -26.953125 26.9375 -28.484375 C 25.488281 -30.015625 23.804688 -31.210938 21.890625 -32.078125 C 19.984375 -32.941406 17.941406 -33.375 15.765625 -33.375 C 13.585938 -33.375 11.546875 -32.941406 9.640625 -32.078125 C 7.734375 -31.210938 6.0625 -30.015625 4.625 -28.484375 C 3.1875 -26.953125 2.054688 -25.179688 1.234375 -23.171875 C 0.410156 -21.160156 0 -19 0 -16.6875 C 0 -14.40625 0.410156 -12.25 1.234375 -10.21875 C 2.054688 -8.195312 3.1875 -6.421875 4.625 -4.890625 C 6.0625 -3.359375 7.734375 -2.160156 9.640625 -1.296875 C 11.546875 -0.429688 13.585938 0 15.765625 0 C 15.796875 0 15.816406 0 15.828125 0 C 15.847656 0 15.859375 0 15.859375 0 Z M 22.25 -3.265625 C 21.332031 -3.515625 20.425781 -3.476562 19.53125 -3.15625 C 18.632812 -2.832031 17.863281 -2.398438 17.21875 -1.859375 C 16.582031 -1.316406 16.171875 -0.835938 15.984375 -0.421875 C 15.953125 -0.421875 15.921875 -0.421875 15.890625 -0.421875 C 15.867188 -0.421875 15.828125 -0.421875 15.765625 -0.421875 C 14.179688 -0.421875 12.695312 -0.835938 11.3125 -1.671875 C 9.9375 -2.503906 8.722656 -3.664062 7.671875 -5.15625 C 6.628906 -6.65625 5.8125 -8.382812 5.21875 -10.34375 C 4.632812 -12.3125 4.34375 -14.410156 4.34375 -16.640625 C 4.34375 -18.898438 4.632812 -21.015625 5.21875 -22.984375 C 5.8125 -24.953125 6.628906 -26.679688 7.671875 -28.171875 C 8.722656 -29.660156 9.9375 -30.820312 11.3125 -31.65625 C 12.695312 -32.5 14.179688 -32.921875 15.765625 -32.921875 C 17.359375 -32.921875 18.84375 -32.5 20.21875 -31.65625 C 21.601562 -30.820312 22.820312 -29.660156 23.875 -28.171875 C 24.9375 -26.679688 25.757812 -24.953125 26.34375 -22.984375 C 26.9375 -21.015625 27.234375 -18.898438 27.234375 -16.640625 C 27.234375 -13.859375 26.78125 -11.300781 25.875 -8.96875 C 24.96875 -6.644531 23.757812 -4.742188 22.25 -3.265625 Z M 20.078125 -1.59375 C 18.847656 -0.894531 17.578125 -0.503906 16.265625 -0.421875 C 16.910156 -1.054688 17.570312 -1.4375 18.25 -1.5625 C 18.9375 -1.6875 19.546875 -1.695312 20.078125 -1.59375 Z M 20.078125 -1.59375 "/></g></g></g></g></g></g></svg>